<svg width="80" height="80" viewBox="0 0 360 230" fill="none" xmlns="http://www.w3.org/2000/svg">
<path fill-rule="evenodd" clip-rule="evenodd" d="M294.085 58.2774C295.942 57.5665 302.747 56.8557 302.747 56.8557L300.89 49.0383C299.653 44.0636 298.415 37.6667 296.56 31.9817V31.2709C296.56 30.5601 299.652 17.0571 299.652 17.0571L300.89 12.0824C301.509 12.0824 301.509 10.6608 301.509 9.94995C301.509 7.81747 300.271 4.26388 295.941 2.84223C290.991 2.1314 286.661 1.42168 281.092 2.1314C273.668 2.84223 266.863 7.10719 263.152 14.2138V2.1314H190.769V10.6608C185.819 4.26388 178.395 1.42168 169.734 2.1314C163.547 2.84223 157.979 4.97471 153.649 9.24022C154.267 8.5294 154.886 5.68609 154.886 5.68609L148.699 4.26444L143.132 2.84168C139.419 2.13085 135.708 2.13085 131.376 2.13085C125.809 2.84168 118.385 4.26333 114.054 10.6602C112.817 13.5024 111.581 17.0571 110.962 21.321C110.962 20.6101 104.774 11.3711 92.4014 5.68499C77.5537 2.41214e-05 65.1806 2.41214e-05 49.7132 5.68499C37.9584 9.23967 29.2979 18.4788 24.3482 23.4524C13.8305 20.6101 7.02541 21.321 3.9325 25.5837C2.69495 27.7168 2.07617 29.8481 2.07617 32.6915C2.07617 39.0883 4.55127 46.1955 7.02589 51.1696C6.40807 53.3021 5.78834 56.8557 5.78834 61.8293V65.3834C6.40807 71.0684 8.26248 76.0442 9.50098 79.5983C7.64466 81.02 7.02589 83.1502 7.02589 85.9941C7.02589 92.3899 12.5944 96.6549 20.0177 97.3657C26.8228 104.472 34.2467 108.737 42.2898 109.446C52.1887 110.159 59.6126 106.605 64.5613 104.472L68.273 103.05C73.2227 101.628 80.0273 100.92 84.3583 101.628C97.3501 103.05 102.919 106.604 102.919 106.604L110.342 113L111.58 102.339L112.198 100.209C112.198 95.944 110.961 88.1266 105.393 78.8875C103.536 76.0442 101.68 73.9117 99.2065 71.7809C104.155 70.3592 109.722 71.0678 110.342 71.0678V78.1767H120.859V108.737H146.843V78.1767H153.029V108.737H212.422C212.422 108.737 213.657 102.339 213.657 100.92H217.37C217.989 102.339 219.226 108.737 219.226 108.737H303.363C303.364 108.737 294.704 61.1207 294.085 58.2774V58.2774ZM230.364 59.699H242.736C242.117 62.5401 239.024 77.4664 237.787 84.5724C235.931 78.1772 231.601 62.5401 230.364 59.699ZM194.48 80.3075V68.9381V59.699H200.666C200.047 62.5401 196.956 71.7814 194.48 80.3075ZM95.4943 34.8239C100.444 32.6915 106.63 31.9817 106.63 31.9817C106.63 31.9817 110.342 31.2709 112.198 31.2709C112.817 33.4023 114.054 35.5348 115.291 36.9559C115.291 38.3775 112.817 46.9058 112.817 46.9058C112.817 46.9058 112.817 49.0383 112.198 50.4599C109.723 46.9058 107.249 43.3533 104.156 40.51C101.68 38.3775 98.5872 36.2456 95.4943 34.8239V34.8239Z" fill="white"/>
<path fill-rule="evenodd" clip-rule="evenodd" d="M47.8576 56.8551C44.7647 57.5659 44.7646 61.8292 45.3834 67.5159C46.0022 73.9116 47.8576 78.1766 50.951 77.4658C54.0448 77.4658 54.0448 72.49 53.4261 66.805C52.8073 61.1201 51.5697 56.8551 47.8576 56.8551V56.8551Z" fill="#A9A9B2"/>
<path fill-rule="evenodd" clip-rule="evenodd" d="M111.58 63.9617C111.58 63.9617 109.723 54.0129 100.444 45.4847C91.7821 38.3769 82.502 39.0878 82.502 39.0878C82.502 39.0878 84.9771 33.4017 91.7821 29.1378C97.9694 25.5837 106.63 24.8751 106.63 24.8751C106.63 24.8751 101.062 17.0565 89.9268 12.0818C76.3157 6.39578 65.1801 6.39578 51.5695 11.371C36.7208 17.0571 26.2041 30.56 26.2041 30.56C26.2041 30.56 11.3564 25.5843 8.88126 29.8481C5.78834 34.1142 13.2127 50.4599 13.2127 50.4599C13.2127 50.4599 11.3564 55.4346 11.9742 64.6726C12.5939 74.6225 17.5436 81.7313 17.5436 81.7313C15.0685 82.4399 12.5939 83.8616 12.5939 85.9941C12.5939 88.1266 16.3056 90.259 20.6365 90.259H22.4929C26.8228 95.2332 33.0096 101.628 42.2898 102.339C54.0441 103.05 61.468 98.0765 66.4177 96.6543C71.9852 94.5218 80.0278 94.5218 84.9771 94.5218C99.8248 96.6543 106.011 100.92 106.011 100.92C106.011 100.92 106.629 93.1001 100.443 82.4394C95.4933 74.6219 85.5944 71.7808 85.5944 71.7808C85.5944 71.7808 90.5441 66.8051 96.7309 65.3828C104.774 63.2531 111.58 63.9617 111.58 63.9617V63.9617ZM17.5436 76.0442C16.3061 73.2008 15.6873 70.3592 15.0685 61.8293C15.0685 57.5665 16.3061 52.5924 18.1614 51.8804C20.6365 51.1696 20.6365 56.1454 21.8741 60.4098C21.8741 61.8293 23.1107 63.9617 23.7294 66.0948C23.1107 65.384 23.1107 65.384 23.1107 66.0948C21.2553 66.0948 20.6365 70.3597 21.8741 75.3339C22.4929 78.1772 23.7294 81.021 24.967 81.7319C23.7294 81.7319 22.4929 81.021 20.6365 81.021C20.6365 81.021 20.0178 81.021 20.0178 81.7319C19.399 80.3075 18.1614 78.1772 17.5436 76.0442ZM55.8999 76.0442C52.807 83.1508 47.8573 85.2832 42.2898 85.2832C36.7203 85.2832 33.0096 81.7313 27.4411 82.4399C28.6796 81.0205 28.6796 77.4658 28.0599 73.2008C27.4411 72.49 27.4411 71.7814 26.8224 70.3597C28.6796 71.7814 29.9162 69.6489 29.9162 69.6489C29.9162 69.6489 30.534 58.9882 33.6279 51.8804C36.102 46.1955 39.8142 41.9305 45.3822 41.2208C50.3319 39.7991 54.0436 44.063 55.899 50.4599C57.7553 56.8551 58.375 68.9381 55.8999 76.0442ZM281.711 9.23964C286.042 8.52882 290.372 8.52882 295.321 9.94937C294.085 14.9252 292.848 19.8993 291.61 24.8751C285.424 15.6349 271.194 31.9817 279.238 38.3769C281.711 40.5094 285.424 39.7986 287.281 37.6661C288.518 36.9553 289.754 35.5347 290.991 34.1142C292.229 39.7991 294.085 45.4847 295.321 51.1696C290.373 51.8804 284.187 54.0129 278.001 52.5924C256.965 46.9052 259.44 11.371 281.711 9.23964V9.23964ZM131.377 9.23964C135.089 8.52882 139.419 9.23964 142.512 9.94937C144.368 9.94937 147.462 10.6602 147.462 10.6602C146.225 14.2132 145.606 17.0571 144.988 20.6101C142.513 20.6101 131.996 19.1885 130.759 21.3209V24.1631C131.376 26.2945 141.275 25.5837 144.369 28.4281C146.225 29.8476 147.462 31.9811 148.081 35.5347C149.318 45.4847 143.132 51.8804 135.708 52.5924C131.377 53.3021 127.047 52.5924 123.334 52.5924C121.479 52.5924 120.242 51.8804 117.766 51.8804C117.766 51.8804 119.623 44.063 120.242 41.2208C123.334 41.2208 131.995 42.6413 133.852 40.51C133.852 39.7991 134.47 38.3775 133.852 37.6667C132.615 36.2461 130.759 36.2461 128.902 36.2461C122.716 35.5353 117.766 34.1147 117.148 25.5843C116.53 21.3215 117.148 17.0571 119.003 14.9257C121.478 10.6602 125.809 9.23964 131.377 9.23964V9.23964ZM196.956 8.52882H212.422L222.321 31.9817V8.52882H234.074V53.3021L217.989 52.5924C217.989 52.5924 211.803 39.0883 208.709 31.9817V53.3021C208.709 53.3021 200.666 52.5924 196.956 52.5924V22.7415V8.52882ZM190.769 22.7415C187.675 13.5024 180.868 7.81689 169.734 8.52882C162.929 9.23964 156.742 13.5029 154.267 19.1885C151.793 23.4523 150.555 30.56 151.793 36.9558C156.742 58.2773 186.438 58.2773 191.387 36.2461C192.005 31.9817 192.005 26.2945 190.769 22.7415V22.7415ZM179.633 30.56C179.014 34.1142 174.684 39.0883 171.59 39.7991C168.496 40.51 166.639 39.7991 164.785 37.6667C159.835 31.9817 167.877 22.742 172.826 22.0318C177.158 21.3209 180.868 24.8751 179.633 30.56ZM243.355 53.3021H256.965V8.52882H243.355V53.3021ZM127.047 71.7814H116.53V57.5665H151.793V71.7814H140.658V101.629H127.047V71.7814Z" fill="#A9A9B2"/>
<path fill-rule="evenodd" clip-rule="evenodd" d="M188.294 57.5665H159.215V101.629H188.913V90.2596H173.447V85.2833H188.913V73.9117H173.447V68.9381H188.294V57.5665ZM223.559 57.5665H207.472L194.48 101.629H207.472L209.328 94.5224H221.7L223.558 101.629H236.55L223.559 57.5665ZM215.514 81.0205H212.422L215.514 69.6489L219.227 81.0205H215.514ZM287.897 57.5665H273.052L268.101 77.4658L263.771 57.5665H248.922L240.88 101.629H253.254L256.965 78.888L261.296 101.629H275.525L279.857 78.888L283.568 101.629H295.942L287.897 57.5665Z" fill="#A9A9B2"/>
<path fill-rule="evenodd" clip-rule="evenodd" d="M307.076 19.1885V10.6602H304.603V8.52881H311.406V10.6602H308.933V19.1885H307.076ZM313.263 19.1885V8.52881H316.356L317.594 15.6349L319.451 8.52881H321.924V19.1885H320.068V10.6602L318.832 19.1885H316.975L315.119 10.6602V19.1885H313.263Z" fill="#040506"/>
</svg>
